<svg width="271" height="60" viewBox="0 0 271 60" fill="none" xmlns="http://www.w3.org/2000/svg">
<g clip-path="url(#clip0_2_90)">
<path d="M264.636 3.1617C265.475 3.16128 266.279 3.49393 266.873 4.08651C267.466 4.67909 267.8 5.48309 267.801 6.32175V53.0703C267.801 53.5668 267.703 54.0585 267.513 54.5171C267.323 54.9758 267.045 55.3926 266.694 55.7437C266.342 56.0948 265.926 56.3733 265.467 56.5633C265.008 56.7533 264.517 56.851 264.02 56.851H6.93132C5.92861 56.851 4.96697 56.4527 4.25795 55.7437C3.54892 55.0347 3.1506 54.073 3.1506 53.0703V6.93139C3.1506 5.92868 3.54892 4.96704 4.25795 4.25802C4.96697 3.54899 5.92861 3.15067 6.93132 3.15067H225.05C225.137 3.15178 225.221 3.17053 225.3 3.20575C225.379 3.24097 225.449 3.29192 225.507 3.35546L233.987 12.76C234.28 13.0541 234.628 13.2875 235.011 13.4467C235.394 13.606 235.805 13.688 236.22 13.688C236.635 13.688 237.046 13.606 237.429 13.4467C237.812 13.2875 238.16 13.0541 238.453 12.76L246.933 3.35231C246.99 3.28778 247.061 3.23616 247.139 3.20086C247.218 3.16555 247.303 3.14737 247.39 3.14752H264.65L264.636 3.1617ZM264.636 7.17095e-05H246.1C246.006 0.000759845 245.914 0.0205359 245.828 0.058188C245.742 0.0958401 245.665 0.150575 245.602 0.219038L237.347 9.39516C237.334 9.40757 237.323 9.4213 237.313 9.43611C237.018 9.72475 236.622 9.88642 236.21 9.88642C235.797 9.88642 235.402 9.72475 235.107 9.43611C235.094 9.42426 235.082 9.41045 235.072 9.39516L226.843 0.239517C226.775 0.162922 226.691 0.10189 226.597 0.0605717C226.504 0.0192536 226.402 -0.00138099 226.3 7.17095e-05H6.93132C5.09302 7.17095e-05 3.33001 0.730333 2.03014 2.03021C0.730262 3.33008 0 5.09309 0 6.93139L0 53.0719C0 54.9102 0.730262 56.6732 2.03014 57.9731C3.33001 59.273 5.09302 60.0032 6.93132 60.0032H264.02C265.858 60.0032 267.621 59.273 268.921 57.9731C270.221 56.6732 270.951 54.9102 270.951 53.0719V6.31545C270.949 4.64114 270.283 3.03602 269.099 1.8521C267.916 0.668193 266.31 0.00215599 264.636 7.17095e-05Z" fill="black"/>
<path d="M29.9653 23.8863C30.0769 23.8895 30.1866 23.9161 30.2873 23.9644C30.388 24.0126 30.4775 24.0813 30.5501 24.1662C30.6226 24.251 30.6766 24.3501 30.7086 24.4571C30.7405 24.5641 30.7498 24.6766 30.7357 24.7873V28.3554C30.7357 28.85 30.4679 29.0769 29.9653 29.0769H22.6008C18.4483 29.0769 17.815 30.4789 17.815 36.1657C17.815 41.8526 18.4452 43.2546 22.6008 43.2546H29.9653C30.46 43.2546 30.7357 43.4814 30.7357 43.9351V47.5457C30.7357 48.0892 30.4679 48.316 29.9653 48.4058C27.5367 48.8538 25.0703 49.0648 22.6008 49.0359C12.982 49.0359 11.1326 46.1074 11.1326 36.1642C11.1326 26.2209 12.982 23.2955 22.6008 23.2955C25.0681 23.2729 27.5325 23.4684 29.9653 23.88" fill="black"/>
<path d="M39.7637 17.6701C39.9308 17.6701 40.0911 17.7365 40.2093 17.8547C40.3274 17.9729 40.3938 18.1331 40.3938 18.3003V48.4389C40.3938 48.606 40.3274 48.7663 40.2093 48.8845C40.0911 49.0026 39.9308 49.069 39.7637 49.069H34.3872C34.297 49.0756 34.2064 49.0626 34.1216 49.0311C34.0368 48.9995 33.9598 48.9501 33.8959 48.8861C33.8319 48.8221 33.7825 48.7452 33.7509 48.6604C33.7193 48.5756 33.7064 48.485 33.713 48.3948V18.3444C33.7069 18.258 33.7187 18.1713 33.7477 18.0897C33.7766 18.008 33.8221 17.9333 33.8812 17.87C33.9403 17.8067 34.0118 17.7563 34.0913 17.722C34.1708 17.6876 34.2565 17.6699 34.3431 17.6701H39.7637Z" fill="black"/>
<path d="M169.156 35.857V37.259C169.156 38.1601 168.888 38.4767 167.711 38.4767H153.533C153.623 42.541 154.709 43.2624 158.636 43.2624H166.679C166.846 43.2624 167.007 43.3288 167.125 43.447C167.243 43.5652 167.309 43.7255 167.309 43.8926V47.6733C167.32 47.8536 167.26 48.031 167.143 48.1682C167.025 48.3054 166.859 48.3917 166.679 48.409C163.831 48.8866 160.945 49.0976 158.058 49.0391C148.934 49.0391 146.716 46.4682 146.716 36.1673C146.716 25.8664 148.929 23.2955 158.058 23.2955C167.187 23.2955 169.121 25.7782 169.168 35.8507M153.499 34.0911H162.437C162.388 30.1166 161.35 29.0785 158.058 29.0785C154.765 29.0785 153.54 30.1166 153.499 34.0911Z" fill="black"/>
<path d="M183.056 43.2908H181.07C179.083 43.2908 178.409 42.9332 178.409 40.9877V29.1462H182.706C182.793 29.1449 182.879 29.126 182.958 29.0907C183.037 29.0553 183.108 29.0043 183.167 28.9407C183.226 28.8771 183.271 28.8022 183.3 28.7206C183.33 28.6389 183.342 28.5522 183.337 28.4657V23.9556C183.337 23.7885 183.27 23.6282 183.152 23.51C183.034 23.3919 182.874 23.3255 182.706 23.3255H178.409V18.2971C178.407 18.1308 178.339 17.9719 178.222 17.8542C178.104 17.7366 177.945 17.6694 177.779 17.667H172.355C172.188 17.667 172.028 17.7334 171.91 17.8515C171.791 17.9697 171.725 18.13 171.725 18.2971V43.242C171.725 48.9351 175.246 49.0706 179.129 49.0706C180.418 49.0631 181.704 48.927 182.966 48.6642C183.072 48.6611 183.176 48.6356 183.272 48.5893C183.367 48.5431 183.452 48.4772 183.52 48.396C183.588 48.3147 183.638 48.22 183.667 48.118C183.696 48.0159 183.703 47.909 183.688 47.804V43.9635C183.694 43.8771 183.682 43.7904 183.653 43.7088C183.624 43.6271 183.579 43.5524 183.52 43.4891C183.46 43.4258 183.389 43.3754 183.309 43.3411C183.23 43.3067 183.144 43.289 183.058 43.2892" fill="black"/>
<path d="M234.551 36.1673C234.551 46.4603 232.426 49.0391 223.034 49.0391C213.642 49.0391 211.517 46.4682 211.517 36.1673C211.517 25.8664 213.683 23.2955 223.034 23.2955C232.385 23.2955 234.551 25.8255 234.551 36.1673ZM218.248 36.1673C218.248 41.8604 218.922 43.2561 223.034 43.2561C227.146 43.2561 227.867 41.8541 227.867 36.1673C227.867 30.4805 227.193 29.0785 223.034 29.0785C218.875 29.0785 218.248 30.4805 218.248 36.1673Z" fill="black"/>
<path d="M202.566 23.6594C199.378 23.1745 196.135 23.1745 192.947 23.6594V18.3034C192.947 18.1363 192.881 17.976 192.763 17.8578C192.645 17.7397 192.484 17.6733 192.317 17.6733H186.892C186.725 17.6733 186.565 17.7397 186.446 17.8578C186.328 17.976 186.262 18.1363 186.262 18.3034V48.3916C186.256 48.478 186.268 48.5647 186.296 48.6463C186.325 48.7279 186.371 48.8027 186.43 48.866C186.489 48.9292 186.561 48.9796 186.64 49.014C186.72 49.0484 186.805 49.0661 186.892 49.0658H192.317C192.484 49.0658 192.645 48.9995 192.763 48.8813C192.881 48.7631 192.947 48.6028 192.947 48.4357V36.1799C192.947 31.3595 193.084 29.091 197.733 29.091C202.382 29.091 202.595 31.3595 202.566 36.1799C202.538 41.0633 202.566 48.4389 202.566 48.4389C202.566 48.606 202.633 48.7663 202.751 48.8844C202.869 49.0026 203.029 49.069 203.196 49.069H208.622C208.789 49.069 208.949 49.0026 209.067 48.8844C209.185 48.7663 209.252 48.606 209.252 48.4389V34.9212C209.252 27.6749 207.505 24.5526 202.568 23.6515" fill="black"/>
<path d="M259.138 17.4449C259.225 17.4388 259.311 17.4506 259.393 17.4796C259.475 17.5085 259.549 17.554 259.613 17.6131C259.676 17.6722 259.726 17.7437 259.761 17.8232C259.795 17.9027 259.813 17.9884 259.813 18.075V46.3831C259.813 47.6686 259.269 48.1301 257.922 48.3775C254.951 48.8327 251.949 49.065 248.943 49.0722C239.241 49.0722 237.248 46.4036 237.248 36.2492C237.248 26.0948 239.255 23.3318 248.236 23.3318C249.877 23.2852 251.519 23.3748 253.146 23.5996V18.1112C253.142 18.026 253.155 17.9408 253.185 17.8609C253.215 17.781 253.261 17.7079 253.32 17.6462C253.378 17.5845 253.449 17.5354 253.528 17.5018C253.606 17.4683 253.691 17.4511 253.776 17.4512H259.16L259.138 17.4449ZM249.066 29.1541C244.507 29.1541 243.916 30.3718 243.916 36.202C243.916 41.5312 244.28 43.2908 248.792 43.2908C250.241 43.2893 251.689 43.184 253.124 42.9758V29.1541H249.06H249.066Z" fill="black"/>
<path d="M64.2297 31.0649V45.7656C64.2297 47.4496 63.9887 48.0624 61.5343 48.42C58.703 48.8207 55.8479 49.0312 52.9883 49.0501C46.2146 49.0501 42.6465 48.3286 42.5583 41.2398C42.6481 35.1402 45.8113 33.8359 51.8132 33.8359H57.5473V32.2007C57.5473 30.0347 56.1925 29.0863 53.305 29.0863H45.1245C45.0383 29.0852 44.9532 29.0666 44.8744 29.0318C44.7955 28.9969 44.7245 28.9465 44.6657 28.8835C44.6068 28.8205 44.5613 28.7463 44.5319 28.6653C44.5024 28.5843 44.4897 28.4982 44.4943 28.4121V24.7054C44.4901 24.5281 44.5524 24.3557 44.6691 24.2221C44.7857 24.0886 44.9482 24.0036 45.1245 23.9839C47.8206 23.4882 50.5594 23.2624 53.3003 23.3097C62.2385 23.3097 64.2265 26.1972 64.2265 31.0791M52.3519 38.1679C50.0079 38.1679 49.1887 38.9383 49.1887 40.8774C49.1887 43.0435 50.1796 43.6342 53.0262 43.6342C54.544 43.6442 56.0586 43.4921 57.5441 43.1805V38.1679H52.3519Z" fill="black"/>
<path d="M76.6021 28.7618H85.994C86.0798 28.7594 86.1643 28.7399 86.2425 28.7047C86.3207 28.6694 86.3912 28.6189 86.4498 28.5562C86.5084 28.4935 86.554 28.4198 86.5839 28.3394C86.6138 28.2589 86.6275 28.1733 86.6241 28.0876V24.4093C86.6093 24.2197 86.5198 24.0437 86.3754 23.92C86.231 23.7963 86.0434 23.7349 85.8538 23.7492C84.3069 23.5917 82.2023 23.4263 79.6928 23.3507C78.9572 23.316 76.7643 23.3018 76.5028 23.3018C70.7688 23.3018 66.8841 24.6566 66.8841 29.896V30.6175C66.7176 32.1302 67.1073 33.6518 67.9804 34.8983C68.8535 36.1447 70.1503 37.0309 71.6289 37.3913C71.6289 37.3913 78.0167 39.6802 78.2231 39.7637C79.2202 40.2583 79.5778 40.8018 79.5778 41.4965V41.9502C79.5778 43.0781 78.6768 43.5728 76.9171 43.5728H67.5268C67.4402 43.5743 67.3548 43.5934 67.2757 43.6287C67.1966 43.6641 67.1255 43.7151 67.0667 43.7787C67.0078 43.8423 66.9624 43.9171 66.9332 43.9986C66.904 44.0802 66.8916 44.1668 66.8967 44.2533V47.9111C66.8967 48.1317 67.0337 48.5413 67.667 48.5854C69.2139 48.7429 71.3185 48.9083 73.828 48.9839C74.5636 49.0186 76.7565 49.0328 77.018 49.0328C82.752 49.0328 86.6367 47.678 86.6367 42.4386V41.7171C86.8032 40.2044 86.4135 38.6828 85.5404 37.4363C84.6673 36.1898 83.3705 35.3037 81.8919 34.9433C81.8919 34.9433 75.5041 32.6544 75.2977 32.5709C74.3006 32.0762 73.943 31.5328 73.943 30.8381V30.3749C73.943 29.247 74.8441 28.746 76.6037 28.746" fill="black"/>
<path d="M98.7933 28.7618H108.185C108.271 28.7594 108.355 28.7399 108.434 28.7047C108.512 28.6694 108.582 28.6189 108.641 28.5562C108.7 28.4935 108.745 28.4198 108.775 28.3394C108.805 28.2589 108.819 28.1733 108.815 28.0876V24.4093C108.8 24.2197 108.711 24.0437 108.567 23.92C108.422 23.7963 108.235 23.7349 108.045 23.7492C106.498 23.5917 104.394 23.4263 101.884 23.3507C101.148 23.316 98.9556 23.3018 98.6941 23.3018C92.96 23.3018 89.0753 24.6566 89.0753 29.896V30.6175C88.9088 32.1302 89.2985 33.6518 90.1716 34.8983C91.0447 36.1447 92.3416 37.0309 93.8201 37.3913C93.8201 37.3913 100.208 39.6802 100.414 39.7637C101.411 40.2583 101.769 40.8018 101.769 41.4965V41.9502C101.769 43.0781 100.868 43.5728 99.1084 43.5728H89.7164C89.6298 43.5743 89.5444 43.5934 89.4653 43.6287C89.3863 43.6641 89.3152 43.7151 89.2563 43.7787C89.1974 43.8423 89.1521 43.9171 89.1229 43.9986C89.0936 44.0802 89.0812 44.1668 89.0863 44.2533V47.9111C89.0863 48.1317 89.2234 48.5413 89.8566 48.5854C91.4036 48.7429 93.5082 48.9083 96.0176 48.9839C96.7533 49.0186 98.9461 49.0328 99.2076 49.0328C104.942 49.0328 108.826 47.678 108.826 42.4386V41.7171C108.993 40.2044 108.603 38.6828 107.73 37.4363C106.857 36.1898 105.56 35.3037 104.082 34.9433C104.082 34.9433 97.6938 32.6544 97.4874 32.5709C96.4902 32.0762 96.1326 31.5328 96.1326 30.8381V30.3749C96.1326 29.247 97.0337 28.746 98.7933 28.746" fill="black"/>
<path d="M134.345 23.316C132.106 23.1876 129.868 23.5785 127.806 24.4581C125.75 23.5559 123.506 23.164 121.267 23.316C113.181 23.316 111.386 25.7987 111.386 34.132V48.4137C111.386 48.5808 111.453 48.7411 111.571 48.8592C111.689 48.9774 111.849 49.0438 112.016 49.0438H117.428C117.594 49.0413 117.753 48.9742 117.87 48.8565C117.988 48.7389 118.055 48.58 118.058 48.4137V35.8444C118.058 30.3781 118.573 29.3195 121.262 29.1194C123.765 29.3053 124.384 30.2394 124.46 34.7905V48.4042C124.466 48.5709 124.536 48.7289 124.655 48.846C124.773 48.9631 124.932 49.0304 125.099 49.0343H130.51C130.678 49.0343 130.838 48.9679 130.956 48.8498C131.074 48.7316 131.141 48.5713 131.141 48.4042V34.7921C131.216 30.2331 131.835 29.299 134.338 29.1131C137.027 29.3132 137.543 30.3733 137.543 35.8381V48.4074C137.543 48.5745 137.609 48.7348 137.727 48.8529C137.845 48.9711 138.006 49.0375 138.173 49.0375H143.584C143.75 49.0354 143.909 48.9684 144.027 48.8507C144.145 48.7329 144.212 48.5738 144.214 48.4074V34.1257C144.214 25.7924 142.461 23.3097 134.334 23.3097" fill="black"/>
</g>
<defs>
<clipPath id="clip0_2_90">
<rect width="270.951" height="60" fill="white"/>
</clipPath>
</defs>
</svg>
